<svg width="48" height="43" viewBox="0 0 48 43" fill="none" xmlns="http://www.w3.org/2000/svg">
<path id="circle.hexagongrid" d="M15.7811 14.5866C19.9179 14.5866 23.3543 11.2936 23.3543 7.30388C23.3543 3.3353 19.9179 0 15.7811 0C11.6662 0 8.20793 3.3353 8.20793 7.30388C8.20793 11.2936 11.6662 14.5866 15.7811 14.5866ZM32.2189 14.5866C36.3557 14.5866 39.7921 11.2936 39.7921 7.30388C39.7921 3.3353 36.3557 0 32.2189 0C28.104 0 24.6457 3.3353 24.6457 7.30388C24.6457 11.2936 28.0821 14.5866 32.2189 14.5866ZM15.7811 10.6814C13.8769 10.6814 12.2791 9.11929 12.2791 7.30388C12.2791 5.46735 13.8769 3.92636 15.7811 3.92636C17.6854 3.92636 19.3051 5.48846 19.3051 7.30388C19.3051 9.1404 17.6854 10.6814 15.7811 10.6814ZM32.2189 10.6814C30.3146 10.6814 28.7168 9.1404 28.7168 7.30388C28.7168 5.48846 30.3146 3.92636 32.2189 3.92636C34.1231 3.92636 35.7209 5.46735 35.7209 7.30388C35.7209 9.1404 34.1231 10.6814 32.2189 10.6814ZM7.57319 28.7933C11.6881 28.7933 15.1464 25.4791 15.1464 21.5106C15.1464 17.5209 11.6881 14.2067 7.57319 14.2067C3.43639 14.2067 0 17.5209 0 21.5106C0 25.4791 3.43639 28.7933 7.57319 28.7933ZM24.0109 28.7933C28.1259 28.7933 31.5622 25.4791 31.5622 21.5106C31.5622 17.5209 28.1259 14.2067 24.0109 14.2067C19.8741 14.2067 16.4378 17.5209 16.4378 21.5106C16.4378 25.4791 19.8741 28.7933 24.0109 28.7933ZM40.4268 28.7933C44.5636 28.7933 48 25.4791 48 21.5106C48 17.5209 44.5636 14.2067 40.4268 14.2067C36.3119 14.2067 32.8755 17.5209 32.8755 21.5106C32.8755 25.4791 36.3119 28.7933 40.4268 28.7933ZM7.57319 24.8881C5.66895 24.8881 4.04925 23.3471 4.04925 21.5106C4.04925 19.674 5.66895 18.133 7.57319 18.133C9.47743 18.133 11.0752 19.674 11.0752 21.5106C11.0752 23.3471 9.47743 24.8881 7.57319 24.8881ZM24.0109 24.8881C22.1067 24.8881 20.487 23.3471 20.487 21.5106C20.487 19.674 22.1067 18.133 24.0109 18.133C25.8933 18.133 27.513 19.674 27.513 21.5106C27.513 23.3471 25.8933 24.8881 24.0109 24.8881ZM40.4268 24.8881C38.5445 24.8881 36.9248 23.3471 36.9248 21.5106C36.9248 19.674 38.5445 18.133 40.4268 18.133C42.3311 18.133 43.9508 19.674 43.9508 21.5106C43.9508 23.3471 42.3311 24.8881 40.4268 24.8881ZM15.7811 43C19.9179 43 23.3543 39.6647 23.3543 35.6961C23.3543 31.7275 19.9179 28.4134 15.7811 28.4134C11.6443 28.4134 8.20793 31.7275 8.20793 35.6961C8.20793 39.6858 11.6662 43 15.7811 43ZM32.2189 43C36.3557 43 39.7921 39.6858 39.7921 35.6961C39.7921 31.7275 36.3557 28.4134 32.2189 28.4134C28.0821 28.4134 24.6457 31.7275 24.6457 35.6961C24.6457 39.6858 28.104 43 32.2189 43ZM15.7811 39.0947C13.8769 39.0947 12.2791 37.5326 12.2791 35.6961C12.2791 33.8807 13.8769 32.3397 15.7811 32.3397C17.6854 32.3397 19.3051 33.8807 19.3051 35.6961C19.3051 37.5326 17.6854 39.0947 15.7811 39.0947ZM32.2189 39.0947C30.3146 39.0947 28.7168 37.5326 28.7168 35.6961C28.7168 33.8807 30.3146 32.3397 32.2189 32.3397C34.1231 32.3397 35.7209 33.8807 35.7209 35.6961C35.7209 37.5326 34.1231 39.0947 32.2189 39.0947Z" fill="white"/>
</svg>
