<svg width="49" height="50" viewBox="0 0 49 50" fill="none" xmlns="http://www.w3.org/2000/svg">
<path id="graduationcap.circle" d="M24.5 49.5C37.9003 49.5 49 38.424 49 25C49 11.5997 37.9003 0.5 24.4763 0.5C11.076 0.5 0 11.5997 0 25C0 38.424 11.0997 49.5 24.5 49.5ZM24.5 44.6854C13.59 44.6854 4.83834 35.91 4.83834 25C4.83834 14.09 13.5663 5.33834 24.4763 5.33834C35.3863 5.33834 44.1617 14.09 44.1854 25C44.1854 35.91 35.41 44.6854 24.5 44.6854ZM38.09 19.3078L27.4409 14.4695C26.3262 13.9714 25.4013 13.7106 24.4763 13.7343C23.5513 13.7106 22.65 13.9714 21.5116 14.4695L10.8863 19.3078C10.1273 19.6636 9.77154 20.2803 9.77154 20.8969C9.77154 21.5136 10.1273 22.1065 10.8863 22.4385L15.1079 24.3596L22.0808 21.1104C22.0571 21.0392 22.0334 20.9681 22.0334 20.8969C22.0334 20.0668 23.2904 19.5213 24.5237 19.5213C25.757 19.5213 26.9903 20.0668 26.9903 20.8969C26.9903 21.727 25.757 22.2962 24.5237 22.2962C24.1442 22.2962 23.7648 22.2488 23.409 22.1539L16.8867 25.1897L21.5116 27.3243C22.65 27.8461 23.5513 28.0833 24.4763 28.0595C25.4013 28.0833 26.3262 27.8461 27.4409 27.3243L38.09 22.4385C38.8253 22.1065 39.2047 21.5136 39.2047 20.8969C39.2047 20.2803 38.8253 19.6636 38.09 19.3078ZM24.4763 35.0799C30.88 35.0799 35.1728 32.3287 35.1728 28.9845V25.5692L28.105 28.7948C26.8006 29.3877 25.591 29.696 24.4763 29.6723C23.3616 29.696 22.1757 29.4114 20.8712 28.7948L16.8393 26.9448V33.3011C18.713 34.4158 21.3456 35.0799 24.4763 35.0799ZM13.7798 25.5692V28.9845C13.7798 29.9332 14.3015 31.0242 15.1554 31.9729V26.1859L13.7798 25.5692ZM14.2778 35.5305V37.8311C14.2778 38.7323 14.8708 39.3253 15.772 39.3253H16.1989C17.1002 39.3253 17.6931 38.7323 17.6931 37.8311V35.5305C17.6931 34.8664 17.3611 34.3683 16.8393 34.1549V33.3011C16.1752 32.9216 15.6297 32.471 15.1554 31.9729V34.1549C14.6099 34.3683 14.2778 34.8664 14.2778 35.5305Z" fill="white"/>
</svg>
