<svg width="37" height="37" viewBox="0 0 37 37" fill="none" xmlns="http://www.w3.org/2000/svg">
<path d="M18.4911 37C28.6307 37 37 28.6267 37 18.5C37 8.37331 28.6129 0 18.4732 0C8.35138 0 0 8.37331 0 18.5C0 28.6267 8.36926 37 18.4911 37ZM18.4911 33.3143C10.2827 33.3143 3.71967 26.7123 3.71967 18.5C3.71967 10.2877 10.2827 3.70358 18.4732 3.70358C26.6815 3.70358 33.2803 10.2877 33.2982 18.5C33.3161 26.7123 26.6994 33.3143 18.4911 33.3143ZM11.8922 20.1997H16.7922V25.1199C16.7922 26.104 17.4896 26.8017 18.4553 26.8017C19.4567 26.8017 20.1721 26.104 20.1721 25.1199V20.1997H25.0899C26.0735 20.1997 26.7888 19.5019 26.7888 18.5179C26.7888 17.5338 26.0913 16.8182 25.0899 16.8182H20.1721V11.898C20.1721 10.896 19.4567 10.1983 18.4553 10.1983C17.4896 10.1983 16.7922 10.896 16.7922 11.898V16.8182H11.8922C10.8729 16.8182 10.1754 17.5338 10.1754 18.5179C10.1754 19.5019 10.8908 20.1997 11.8922 20.1997Z" fill="white"/>
</svg>
